<svg width="1024" height="1024" viewBox="0 0 1024 1024" fill="none" xmlns="http://www.w3.org/2000/svg">
<rect width="1024" height="1024" rx="256" fill="#4F46E5"/>
<path d="M834.792 496.002C839.539 501.276 852.242 506.375 858 508.265C851.232 511.499 835.804 518.762 828.239 521.948C818.781 525.93 811.758 532.039 796.383 576.7C775.477 637.426 739.014 666.985 692.502 700.441C644.597 734.9 564.019 753.343 532.163 756.827L436.595 766.782C355.983 793.201 282.477 775.389 260.743 764.381C432.974 696.275 465.596 657.501 490.017 628.476C490.858 627.477 491.688 626.489 492.515 625.512C353.646 596.383 251.643 429.187 218 349.23C319.189 397.453 446.675 426.776 498.986 435.643C500.094 435.846 501.212 436.05 502.338 436.256L502.512 436.287C557.15 446.268 632.693 460.068 684.631 502.184C685.941 504.117 688.341 505.639 692.502 505.639C699.994 505.639 714.271 487.219 723.607 475.176C724.924 473.477 726.142 471.905 727.23 470.529C744.884 448.194 767.016 447.251 779.512 447.251C806.323 447.251 821.777 474.121 829.938 488.313C831.999 491.897 833.595 494.672 834.792 496.002Z" fill="white"/>
<path d="M541.392 422.149C540.651 421.893 539.847 421.626 538.977 421.347C503.068 409.813 480.019 369.089 474.529 316.596C477.848 252.876 500.844 192.768 514.93 167C519.196 172.226 522.697 177.16 526.471 182.477C539.33 200.599 555.351 223.176 615.568 276.93C659.403 316.061 683.343 377.51 683.343 409.369V476.317C640.9 446.148 587.07 431.513 541.392 422.149Z" fill="white" fill-opacity="0.75"/>
</svg>
